<svg width="243" height="72" viewBox="0 0 243 72" fill="none" xmlns="http://www.w3.org/2000/svg">
<path d="M29.8602 26.976H14.2602L11.2842 34.176H3.31619L18.2922 0.575998H25.9722L40.9962 34.176H32.8362L29.8602 26.976ZM27.4122 21.072L22.0842 8.208L16.7562 21.072H27.4122Z" fill="#DCD7C9"/>
<path d="M90.4662 0.575998L79.4742 34.176H71.1222L63.7302 11.424L56.0982 34.176H47.7942L36.7542 0.575998H44.8182L52.4022 24.192L60.3222 0.575998H67.5222L75.2022 24.384L83.0262 0.575998H90.4662Z" fill="#DCD7C9"/>
<path d="M105.847 34.752C103.191 34.752 100.615 34.4 98.1192 33.696C95.6552 32.96 93.6712 32.016 92.1672 30.864L94.8072 25.008C96.2472 26.064 97.9592 26.912 99.9432 27.552C101.927 28.192 103.911 28.512 105.895 28.512C108.103 28.512 109.735 28.192 110.791 27.552C111.847 26.88 112.375 26 112.375 24.912C112.375 24.112 112.055 23.456 111.415 22.944C110.807 22.4 110.007 21.968 109.015 21.648C108.055 21.328 106.743 20.976 105.079 20.592C102.519 19.984 100.423 19.376 98.7912 18.768C97.1592 18.16 95.7512 17.184 94.5672 15.84C93.4152 14.496 92.8392 12.704 92.8392 10.464C92.8392 8.512 93.3672 6.752 94.4232 5.184C95.4792 3.584 97.0632 2.32 99.1752 1.392C101.319 0.464 103.927 0 106.999 0C109.143 0 111.239 0.256 113.287 0.767999C115.335 1.28 117.127 2.016 118.663 2.976L116.263 8.88C113.159 7.12 110.055 6.24 106.951 6.24C104.775 6.24 103.159 6.592 102.103 7.296C101.079 8 100.567 8.928 100.567 10.08C100.567 11.232 101.159 12.096 102.343 12.672C103.559 13.216 105.399 13.76 107.863 14.304C110.423 14.912 112.519 15.52 114.151 16.128C115.783 16.736 117.175 17.696 118.327 19.008C119.511 20.32 120.103 22.096 120.103 24.336C120.103 26.256 119.559 28.016 118.471 29.616C117.415 31.184 115.815 32.432 113.671 33.36C111.527 34.288 108.919 34.752 105.847 34.752Z" fill="#DCD7C9"/>
<path d="M141.593 34.464C138.265 34.464 135.241 33.728 132.521 32.256C129.833 30.752 127.721 28.704 126.185 26.112C124.681 23.52 123.929 20.608 123.929 17.376C123.929 14.144 124.681 11.232 126.185 8.64C127.721 6.048 129.833 4.016 132.521 2.544C135.241 1.04 138.265 0.287999 141.593 0.287999C144.921 0.287999 147.913 1.024 150.569 2.496C153.257 3.968 155.369 6.016 156.905 8.64C158.441 11.232 159.209 14.144 159.209 17.376C159.209 20.608 158.441 23.536 156.905 26.16C155.369 28.752 153.257 30.784 150.569 32.256C147.913 33.728 144.921 34.464 141.593 34.464ZM141.593 31.296C144.249 31.296 146.649 30.704 148.793 29.52C150.937 28.304 152.617 26.64 153.833 24.528C155.049 22.384 155.657 20 155.657 17.376C155.657 14.752 155.049 12.384 153.833 10.272C152.617 8.128 150.937 6.464 148.793 5.28C146.649 4.064 144.249 3.456 141.593 3.456C138.937 3.456 136.521 4.064 134.345 5.28C132.201 6.464 130.505 8.128 129.257 10.272C128.041 12.384 127.433 14.752 127.433 17.376C127.433 20 128.041 22.384 129.257 24.528C130.505 26.64 132.201 28.304 134.345 29.52C136.521 30.704 138.937 31.296 141.593 31.296Z" fill="#DCD7C9"/>
<path d="M202.066 0.575998V34.176H198.658V7.296L185.458 29.904H183.778L170.578 7.44V34.176H167.17V0.575998H170.098L184.69 25.488L199.138 0.575998H202.066Z" fill="#DCD7C9"/>
<path d="M236.774 31.104V34.176H213.014V0.575998H236.054V3.648H216.566V15.6H233.942V18.624H216.566V31.104H236.774Z" fill="#DCD7C9"/>
<path d="M0 45.3702C0 43.1611 1.79086 41.3702 4 41.3702H239C241.209 41.3702 243 43.1611 243 45.3702V67.0897C243 69.2988 241.209 71.0897 239 71.0897H4C1.79086 71.0897 0 69.2988 0 67.0897V45.3702Z" fill="url(#paint0_linear_11_2)"/>
<path d="M67.9212 64.3346C66.1753 64.3346 64.5926 63.9593 63.173 63.2088C61.7698 62.4419 60.6603 61.3895 59.8445 60.0515C59.045 58.6972 58.6452 57.1716 58.6452 55.4747C58.6452 53.7778 59.045 52.2604 59.8445 50.9224C60.6603 49.5681 61.7698 48.5157 63.173 47.7652C64.5926 46.9983 66.1834 46.6148 67.9456 46.6148C69.4304 46.6148 70.7684 46.8759 71.9595 47.398C73.1669 47.9202 74.1786 48.6707 74.9944 49.6497L72.449 51.9993C71.2905 50.6613 69.8547 49.9924 68.1414 49.9924C67.0809 49.9924 66.1345 50.2289 65.3024 50.7021C64.4702 51.159 63.8175 51.8035 63.3444 52.6356C62.8875 53.4678 62.6591 54.4141 62.6591 55.4747C62.6591 56.5353 62.8875 57.4817 63.3444 58.3138C63.8175 59.1459 64.4702 59.7986 65.3024 60.2718C66.1345 60.7286 67.0809 60.9571 68.1414 60.9571C69.8547 60.9571 71.2905 60.2799 72.449 58.9257L74.9944 61.2752C74.1786 62.2706 73.1669 63.0293 71.9595 63.5514C70.7521 64.0735 69.406 64.3346 67.9212 64.3346Z" fill="#DCD7C9"/>
<path d="M108.2 60.3697H100.246L98.7283 64.0409H94.6655L102.302 46.9085H106.218L113.878 64.0409H109.717L108.2 60.3697ZM106.952 57.3593L104.235 50.8L101.518 57.3593H106.952Z" fill="#DCD7C9"/>
<path d="M139.2 50.0903V54.6181H147.13V57.7998H139.2V64.0409H135.236V46.9085H148.183V50.0903H139.2Z" fill="#DCD7C9"/>
<path d="M183.712 60.8592V64.0409H170.447V46.9085H183.394V50.0903H174.387V53.8104H182.342V56.8943H174.387V60.8592H183.712Z" fill="#DCD7C9"/>
<defs>
<linearGradient id="paint0_linear_11_2" x1="121.5" y1="0" x2="121.5" y2="71.0897" gradientUnits="userSpaceOnUse">
<stop stop-color="#A27B5C"/>
<stop offset="1" stop-color="#564233"/>
</linearGradient>
</defs>
</svg>
